# xmcd
#
# Track frame offsets:
#	150
#	21322
#	36542
#	54909
#	77819
#	92328
#	108950
#	133069
#	153454
#
# Disc length: 2302 seconds
#
# Revision: 0
# Processed by: cddbd v1.5.2PL0 Copyright (c) Steve Scherf et al.
# Submitted via: audiograbber 1.83.01
#
DISCID=6c08fc09
DTITLE=Bachman-Turner Overdrive - Classic Album Set [2016] [CD 5) - Head On
DYEAR=1975
DGENRE=Rock
TTITLE0=Find Out About Love
TTITLE1=It's Over
TTITLE2=Average Man
TTITLE3=Woncha Take Me For A While
TTITLE4=Wild Spirit
TTITLE5=Take It Like A Man
TTITLE6=Lookin' Out For #1
TTITLE7=Away From Home
TTITLE8=Stay Alive [mono]
EXTD=
EXTT0=
EXTT1=
EXTT2=
EXTT3=
EXTT4=
EXTT5=
EXTT6=
EXTT7=
EXTT8=
PLAYORDER=
